<mxfile host="app.diagrams.net" modified="2022-06-29T00:51:57.193Z" agent="5.0 (Windows NT 10.0; Win64; x64) AppleWebKit/537.36 (KHTML, like Gecko) Chrome/103.0.0.0 Safari/537.36" etag="jajFSD2RRzfCIyTPr0s8" version="18.0.1" type="github">
  <diagram id="iJe6174uvLX6trYQLQHG" name="Page-1">
    <mxGraphModel dx="825" dy="426" grid="1" gridSize="10" guides="1" tooltips="1" connect="1" arrows="1" fold="1" page="1" pageScale="1" pageWidth="2336" pageHeight="1654" math="0" shadow="0">
      <root>
        <mxCell id="0" />
        <mxCell id="1" parent="0" />
        <mxCell id="9a92jqEBNPij-2C5XxpZ-12" style="edgeStyle=orthogonalEdgeStyle;rounded=0;orthogonalLoop=1;jettySize=auto;html=1;exitX=1;exitY=0.5;exitDx=0;exitDy=0;entryX=0;entryY=0.5;entryDx=0;entryDy=0;endArrow=none;endFill=0;" parent="1" source="9a92jqEBNPij-2C5XxpZ-2" target="9a92jqEBNPij-2C5XxpZ-7" edge="1">
          <mxGeometry relative="1" as="geometry" />
        </mxCell>
        <mxCell id="9a92jqEBNPij-2C5XxpZ-2" value="Customer Info" style="rounded=0;whiteSpace=wrap;html=1;" parent="1" vertex="1">
          <mxGeometry x="550" y="190" width="120" height="60" as="geometry" />
        </mxCell>
        <mxCell id="9a92jqEBNPij-2C5XxpZ-3" value="Quotes" style="rounded=0;whiteSpace=wrap;html=1;" parent="1" vertex="1">
          <mxGeometry x="910" y="190" width="120" height="60" as="geometry" />
        </mxCell>
        <mxCell id="9a92jqEBNPij-2C5XxpZ-20" style="edgeStyle=orthogonalEdgeStyle;rounded=0;orthogonalLoop=1;jettySize=auto;html=1;exitX=0.5;exitY=0;exitDx=0;exitDy=0;entryX=0.5;entryY=1;entryDx=0;entryDy=0;endArrow=none;endFill=0;" parent="1" source="9a92jqEBNPij-2C5XxpZ-4" target="9a92jqEBNPij-2C5XxpZ-7" edge="1">
          <mxGeometry relative="1" as="geometry" />
        </mxCell>
        <mxCell id="9a92jqEBNPij-2C5XxpZ-26" style="edgeStyle=orthogonalEdgeStyle;orthogonalLoop=1;jettySize=auto;html=1;exitX=0.75;exitY=0;exitDx=0;exitDy=0;entryX=0;entryY=1;entryDx=0;entryDy=0;endArrow=none;endFill=0;curved=1;" parent="1" source="9a92jqEBNPij-2C5XxpZ-4" target="9a92jqEBNPij-2C5XxpZ-8" edge="1">
          <mxGeometry relative="1" as="geometry" />
        </mxCell>
        <mxCell id="9a92jqEBNPij-2C5XxpZ-4" value="Employee Info" style="rounded=0;whiteSpace=wrap;html=1;" parent="1" vertex="1">
          <mxGeometry x="735" y="350" width="120" height="60" as="geometry" />
        </mxCell>
        <mxCell id="9a92jqEBNPij-2C5XxpZ-5" value="Purchase Orders&lt;br&gt;" style="rounded=0;whiteSpace=wrap;html=1;" parent="1" vertex="1">
          <mxGeometry x="910" y="350" width="120" height="60" as="geometry" />
        </mxCell>
        <mxCell id="9a92jqEBNPij-2C5XxpZ-22" style="edgeStyle=orthogonalEdgeStyle;rounded=0;orthogonalLoop=1;jettySize=auto;html=1;exitX=0.5;exitY=0;exitDx=0;exitDy=0;entryX=0.5;entryY=1;entryDx=0;entryDy=0;endArrow=none;endFill=0;" parent="1" source="9a92jqEBNPij-2C5XxpZ-6" target="9a92jqEBNPij-2C5XxpZ-3" edge="1">
          <mxGeometry relative="1" as="geometry" />
        </mxCell>
        <mxCell id="9a92jqEBNPij-2C5XxpZ-23" style="edgeStyle=orthogonalEdgeStyle;rounded=0;orthogonalLoop=1;jettySize=auto;html=1;exitX=0.5;exitY=1;exitDx=0;exitDy=0;endArrow=none;endFill=0;" parent="1" source="9a92jqEBNPij-2C5XxpZ-6" target="9a92jqEBNPij-2C5XxpZ-5" edge="1">
          <mxGeometry relative="1" as="geometry" />
        </mxCell>
        <mxCell id="9a92jqEBNPij-2C5XxpZ-6" value="Converts" style="rhombus;whiteSpace=wrap;html=1;" parent="1" vertex="1">
          <mxGeometry x="945" y="270" width="50" height="50" as="geometry" />
        </mxCell>
        <mxCell id="9a92jqEBNPij-2C5XxpZ-15" style="edgeStyle=orthogonalEdgeStyle;rounded=0;orthogonalLoop=1;jettySize=auto;html=1;exitX=1;exitY=0.5;exitDx=0;exitDy=0;entryX=0;entryY=0.5;entryDx=0;entryDy=0;endArrow=none;endFill=0;" parent="1" source="9a92jqEBNPij-2C5XxpZ-7" target="9a92jqEBNPij-2C5XxpZ-3" edge="1">
          <mxGeometry relative="1" as="geometry" />
        </mxCell>
        <mxCell id="9a92jqEBNPij-2C5XxpZ-7" value="Generates" style="rhombus;whiteSpace=wrap;html=1;" parent="1" vertex="1">
          <mxGeometry x="760" y="190" width="70" height="60" as="geometry" />
        </mxCell>
        <mxCell id="9a92jqEBNPij-2C5XxpZ-27" style="edgeStyle=orthogonalEdgeStyle;orthogonalLoop=1;jettySize=auto;html=1;exitX=1;exitY=0;exitDx=0;exitDy=0;entryX=0;entryY=1;entryDx=0;entryDy=0;endArrow=none;endFill=0;curved=1;" parent="1" source="9a92jqEBNPij-2C5XxpZ-8" target="9a92jqEBNPij-2C5XxpZ-3" edge="1">
          <mxGeometry relative="1" as="geometry" />
        </mxCell>
        <mxCell id="9a92jqEBNPij-2C5XxpZ-8" value="Edits" style="rhombus;whiteSpace=wrap;html=1;" parent="1" vertex="1">
          <mxGeometry x="840" y="270" width="60" height="60" as="geometry" />
        </mxCell>
        <mxCell id="9a92jqEBNPij-2C5XxpZ-18" value="1 , m" style="text;html=1;strokeColor=none;fillColor=none;align=center;verticalAlign=middle;whiteSpace=wrap;rounded=0;" parent="1" vertex="1">
          <mxGeometry x="810" y="190" width="60" height="30" as="geometry" />
        </mxCell>
        <mxCell id="9a92jqEBNPij-2C5XxpZ-19" value="1 , 1" style="text;html=1;strokeColor=none;fillColor=none;align=center;verticalAlign=middle;whiteSpace=wrap;rounded=0;" parent="1" vertex="1">
          <mxGeometry x="710" y="190" width="60" height="30" as="geometry" />
        </mxCell>
        <mxCell id="9a92jqEBNPij-2C5XxpZ-21" value="1 , 1" style="text;html=1;strokeColor=none;fillColor=none;align=center;verticalAlign=middle;whiteSpace=wrap;rounded=0;" parent="1" vertex="1">
          <mxGeometry x="780" y="250" width="60" height="30" as="geometry" />
        </mxCell>
        <mxCell id="9a92jqEBNPij-2C5XxpZ-24" value="1 , 1" style="text;html=1;strokeColor=none;fillColor=none;align=center;verticalAlign=middle;whiteSpace=wrap;rounded=0;" parent="1" vertex="1">
          <mxGeometry x="960" y="320" width="60" height="30" as="geometry" />
        </mxCell>
        <mxCell id="9a92jqEBNPij-2C5XxpZ-25" value="1 , 1" style="text;html=1;strokeColor=none;fillColor=none;align=center;verticalAlign=middle;whiteSpace=wrap;rounded=0;" parent="1" vertex="1">
          <mxGeometry x="960" y="250" width="60" height="30" as="geometry" />
        </mxCell>
        <mxCell id="9a92jqEBNPij-2C5XxpZ-28" value="1 , m" style="text;html=1;strokeColor=none;fillColor=none;align=center;verticalAlign=middle;whiteSpace=wrap;rounded=0;" parent="1" vertex="1">
          <mxGeometry x="860" y="250" width="60" height="30" as="geometry" />
        </mxCell>
        <mxCell id="9a92jqEBNPij-2C5XxpZ-29" value="1 , m" style="text;html=1;strokeColor=none;fillColor=none;align=center;verticalAlign=middle;whiteSpace=wrap;rounded=0;" parent="1" vertex="1">
          <mxGeometry x="795" y="310" width="60" height="30" as="geometry" />
        </mxCell>
        <mxCell id="0XX7TdqP8mAPtL5vjWQp-8" style="edgeStyle=orthogonalEdgeStyle;curved=1;orthogonalLoop=1;jettySize=auto;html=1;exitX=1;exitY=0.5;exitDx=0;exitDy=0;endArrow=none;endFill=0;" edge="1" parent="1" source="0XX7TdqP8mAPtL5vjWQp-1" target="9a92jqEBNPij-2C5XxpZ-2">
          <mxGeometry relative="1" as="geometry" />
        </mxCell>
        <mxCell id="0XX7TdqP8mAPtL5vjWQp-1" value="Name" style="ellipse;whiteSpace=wrap;html=1;" vertex="1" parent="1">
          <mxGeometry x="450" y="190" width="70" height="50" as="geometry" />
        </mxCell>
        <mxCell id="0XX7TdqP8mAPtL5vjWQp-9" style="edgeStyle=orthogonalEdgeStyle;curved=1;orthogonalLoop=1;jettySize=auto;html=1;exitX=0.5;exitY=1;exitDx=0;exitDy=0;endArrow=none;endFill=0;" edge="1" parent="1" source="0XX7TdqP8mAPtL5vjWQp-2" target="9a92jqEBNPij-2C5XxpZ-2">
          <mxGeometry relative="1" as="geometry" />
        </mxCell>
        <mxCell id="0XX7TdqP8mAPtL5vjWQp-2" value="Address" style="ellipse;whiteSpace=wrap;html=1;" vertex="1" parent="1">
          <mxGeometry x="570" y="120" width="70" height="50" as="geometry" />
        </mxCell>
        <mxCell id="0XX7TdqP8mAPtL5vjWQp-7" style="edgeStyle=orthogonalEdgeStyle;curved=1;orthogonalLoop=1;jettySize=auto;html=1;exitX=0.5;exitY=0;exitDx=0;exitDy=0;entryX=0.5;entryY=1;entryDx=0;entryDy=0;endArrow=none;endFill=0;" edge="1" parent="1" source="0XX7TdqP8mAPtL5vjWQp-6" target="9a92jqEBNPij-2C5XxpZ-2">
          <mxGeometry relative="1" as="geometry" />
        </mxCell>
        <mxCell id="0XX7TdqP8mAPtL5vjWQp-6" value="Email&lt;br&gt;" style="ellipse;whiteSpace=wrap;html=1;" vertex="1" parent="1">
          <mxGeometry x="575" y="270" width="70" height="50" as="geometry" />
        </mxCell>
        <mxCell id="0XX7TdqP8mAPtL5vjWQp-16" value="" style="ellipse;whiteSpace=wrap;html=1;" vertex="1" parent="1">
          <mxGeometry x="1140" y="200" width="70" height="50" as="geometry" />
        </mxCell>
        <mxCell id="0XX7TdqP8mAPtL5vjWQp-23" style="edgeStyle=orthogonalEdgeStyle;curved=1;orthogonalLoop=1;jettySize=auto;html=1;exitX=0;exitY=0.5;exitDx=0;exitDy=0;entryX=0.992;entryY=0.44;entryDx=0;entryDy=0;entryPerimeter=0;endArrow=none;endFill=0;" edge="1" parent="1" source="0XX7TdqP8mAPtL5vjWQp-17" target="0XX7TdqP8mAPtL5vjWQp-19">
          <mxGeometry relative="1" as="geometry" />
        </mxCell>
        <mxCell id="0XX7TdqP8mAPtL5vjWQp-17" value="Name" style="ellipse;whiteSpace=wrap;html=1;" vertex="1" parent="1">
          <mxGeometry x="1050" y="45" width="70" height="50" as="geometry" />
        </mxCell>
        <mxCell id="0XX7TdqP8mAPtL5vjWQp-26" style="edgeStyle=orthogonalEdgeStyle;curved=1;orthogonalLoop=1;jettySize=auto;html=1;exitX=1;exitY=0.5;exitDx=0;exitDy=0;entryX=0;entryY=0.5;entryDx=0;entryDy=0;endArrow=none;endFill=0;" edge="1" parent="1" source="0XX7TdqP8mAPtL5vjWQp-18" target="0XX7TdqP8mAPtL5vjWQp-19">
          <mxGeometry relative="1" as="geometry" />
        </mxCell>
        <mxCell id="0XX7TdqP8mAPtL5vjWQp-18" value="Quote ID" style="ellipse;whiteSpace=wrap;html=1;" vertex="1" parent="1">
          <mxGeometry x="810" y="40" width="70" height="50" as="geometry" />
        </mxCell>
        <mxCell id="0XX7TdqP8mAPtL5vjWQp-19" value="Services" style="rounded=0;whiteSpace=wrap;html=1;" vertex="1" parent="1">
          <mxGeometry x="910" y="40" width="120" height="60" as="geometry" />
        </mxCell>
        <mxCell id="0XX7TdqP8mAPtL5vjWQp-21" style="edgeStyle=orthogonalEdgeStyle;curved=1;orthogonalLoop=1;jettySize=auto;html=1;exitX=0.5;exitY=0;exitDx=0;exitDy=0;entryX=0.452;entryY=0.987;entryDx=0;entryDy=0;entryPerimeter=0;endArrow=none;endFill=0;" edge="1" parent="1" source="0XX7TdqP8mAPtL5vjWQp-20" target="0XX7TdqP8mAPtL5vjWQp-19">
          <mxGeometry relative="1" as="geometry" />
        </mxCell>
        <mxCell id="0XX7TdqP8mAPtL5vjWQp-22" style="edgeStyle=orthogonalEdgeStyle;curved=1;orthogonalLoop=1;jettySize=auto;html=1;exitX=0.5;exitY=1;exitDx=0;exitDy=0;endArrow=none;endFill=0;" edge="1" parent="1" source="0XX7TdqP8mAPtL5vjWQp-20" target="9a92jqEBNPij-2C5XxpZ-3">
          <mxGeometry relative="1" as="geometry" />
        </mxCell>
        <mxCell id="0XX7TdqP8mAPtL5vjWQp-20" value="Something" style="rhombus;whiteSpace=wrap;html=1;" vertex="1" parent="1">
          <mxGeometry x="940" y="120" width="50" height="50" as="geometry" />
        </mxCell>
        <mxCell id="0XX7TdqP8mAPtL5vjWQp-25" style="edgeStyle=orthogonalEdgeStyle;curved=1;orthogonalLoop=1;jettySize=auto;html=1;exitX=0;exitY=0.5;exitDx=0;exitDy=0;entryX=0.925;entryY=1.027;entryDx=0;entryDy=0;entryPerimeter=0;endArrow=none;endFill=0;" edge="1" parent="1" source="0XX7TdqP8mAPtL5vjWQp-24" target="0XX7TdqP8mAPtL5vjWQp-19">
          <mxGeometry relative="1" as="geometry" />
        </mxCell>
        <mxCell id="0XX7TdqP8mAPtL5vjWQp-24" value="Cost" style="ellipse;whiteSpace=wrap;html=1;" vertex="1" parent="1">
          <mxGeometry x="1050" y="110" width="70" height="50" as="geometry" />
        </mxCell>
        <mxCell id="0XX7TdqP8mAPtL5vjWQp-28" style="edgeStyle=orthogonalEdgeStyle;curved=1;orthogonalLoop=1;jettySize=auto;html=1;exitX=0;exitY=0.5;exitDx=0;exitDy=0;entryX=1.005;entryY=0.573;entryDx=0;entryDy=0;entryPerimeter=0;endArrow=none;endFill=0;" edge="1" parent="1" source="0XX7TdqP8mAPtL5vjWQp-27" target="9a92jqEBNPij-2C5XxpZ-3">
          <mxGeometry relative="1" as="geometry" />
        </mxCell>
        <mxCell id="0XX7TdqP8mAPtL5vjWQp-27" value="Subtotal&lt;br&gt;" style="ellipse;whiteSpace=wrap;html=1;" vertex="1" parent="1">
          <mxGeometry x="1050" y="200" width="70" height="50" as="geometry" />
        </mxCell>
      </root>
    </mxGraphModel>
  </diagram>
</mxfile>
